name D:\school\WTK\thesis\model\3dpredictsim\Results\batch_windlass\Pog_s1_tmt_aCst_d00_k1000_WL20_ig24_pas.mot
datacolumns 128
datarows 4
range 1.07621815 1.10850469
endheader
time	pelvis_tilt	pelvis_list	pelvis_rotation	pelvis_tx	pelvis_ty	pelvis_tz	hip_flexion_l	hip_adduction_l	hip_rotation_l	hip_flexion_r	hip_adduction_r	hip_rotation_r	knee_angle_l	knee_angle_r	ankle_angle_l	ankle_angle_r	subtalar_angle_l	subtalar_angle_r	tmt_angle_l	tmt_angle_r	mtp_angle_l	mtp_angle_r	lumbar_extension	lumbar_bending	lumbar_rotation	arm_flex_l	arm_add_l	arm_rot_l	arm_flex_r	arm_add_r	arm_rot_r	elbow_flex_l	elbow_flex_r	pro_sup_l	pro_sup_r	glut_med1_l/activation	glut_med2_l/activation	glut_med3_l/activation	glut_min1_l/activation	glut_min2_l/activation	glut_min3_l/activation	semimem_l/activation	semiten_l/activation	bifemlh_l/activation	bifemsh_l/activation	sar_l/activation	add_long_l/activation	add_brev_l/activation	add_mag1_l/activation	add_mag2_l/activation	add_mag3_l/activation	tfl_l/activation	pect_l/activation	grac_l/activation	glut_max1_l/activation	glut_max2_l/activation	glut_max3_l/activation	iliacus_l/activation	psoas_l/activation	quad_fem_l/activation	gem_l/activation	peri_l/activation	rect_fem_l/activation	vas_med_l/activation	vas_int_l/activation	vas_lat_l/activation	med_gas_l/activation	lat_gas_l/activation	soleus_l/activation	tib_post_l/activation	flex_dig_l/activation	flex_hal_l/activation	tib_ant_l/activation	per_brev_l/activation	per_long_l/activation	per_tert_l/activation	ext_dig_l/activation	ext_hal_l/activation	ercspn_l/activation	intobl_l/activation	extobl_l/activation	glut_med1_r/activation	glut_med2_r/activation	glut_med3_r/activation	glut_min1_r/activation	glut_min2_r/activation	glut_min3_r/activation	semimem_r/activation	semiten_r/activation	bifemlh_r/activation	bifemsh_r/activation	sar_r/activation	add_long_r/activation	add_brev_r/activation	add_mag1_r/activation	add_mag2_r/activation	add_mag3_r/activation	tfl_r/activation	pect_r/activation	grac_r/activation	glut_max1_r/activation	glut_max2_r/activation	glut_max3_r/activation	iliacus_r/activation	psoas_r/activation	quad_fem_r/activation	gem_r/activation	peri_r/activation	rect_fem_r/activation	vas_med_r/activation	vas_int_r/activation	vas_lat_r/activation	med_gas_r/activation	lat_gas_r/activation	soleus_r/activation	tib_post_r/activation	flex_dig_r/activation	flex_hal_r/activation	tib_ant_r/activation	per_brev_r/activation	per_long_r/activation	per_tert_r/activation	ext_dig_r/activation	ext_hal_r/activation	ercspn_r/activation	intobl_r/activation	extobl_r/activation	
          1.07621815	         -2.92372126	         -1.75231818	          5.99127055	          1.34527268	          0.85763603	         -0.00223648	        -17.94321770	         -1.67473711	          8.60747684	         32.04025967	          2.38805913	         -3.24578214	         -9.50006785	        -19.33829631	         -0.39927512	          1.46400442	         12.85970039	         -0.45285599	         -5.20237971	         -0.44691076	         27.31449688	          1.95670279	         -1.11831654	          0.08548446	         -1.83072967	          5.91856560	        -13.45797879	         16.28293094	         -9.62179513	        -13.62199422	          7.85090939	         35.46628874	         16.43787886	         86.51662706	         86.51662706	          0.25563174	          0.09288293	          0.05000010	          0.29918449	          0.20383233	          0.09673151	          0.05000338	          0.05000031	          0.05000023	          0.07355784	          0.09457708	          0.14070931	          0.05000315	          0.05000163	          0.05000268	          0.05000426	          0.31175507	          0.05001538	          0.05000067	          0.05000264	          0.05000198	          0.05000177	          0.34249052	          0.55079163	          0.05000021	          0.05000088	          0.05000019	          0.25375096	          0.12387734	          0.07085423	          0.05000739	          0.28931602	          0.37206561	          0.23886958	          0.20732875	          0.21644555	          0.27985531	          0.05000000	          0.11796481	          0.18384607	          0.05000007	          0.05000001	          0.05000005	          0.05000000	          0.05000016	          0.05000002	          0.05000027	          0.05000029	          0.05896847	          0.05000013	          0.05000019	          0.05000059	          0.05301269	          0.05896868	          0.23869336	          0.05896830	          0.05000059	          0.09890689	          0.13208867	          0.14114370	          0.16183595	          0.13641112	          0.05000697	          0.05000391	          0.05896966	          0.05896874	          0.05896934	          0.12412605	          0.06270760	          0.06421417	          0.22915319	          0.05000028	          0.05000030	          0.05000044	          0.11546331	          0.12464503	          0.10053950	          0.06476432	          0.05896909	          0.06744980	          0.05000011	          0.05896914	          0.05896945	          0.49314826	          0.35272875	          0.18458348	          0.25349639	          0.58216884	          0.16997967	          0.05467078	          0.10377132	          0.11408306	
          1.08698033	         -2.91266013	         -1.87294119	          6.24946305	          1.36179444	          0.85665493	         -0.00203302	        -17.64581240	         -1.98553897	          8.40288652	         31.48969351	          2.83408671	         -3.03266677	        -11.61814327	        -19.10685104	         -1.43556058	          1.26869899	         13.87330423	         -1.03654717	         -5.62146298	         -0.52329437	         28.18983629	          2.26608855	         -0.90322574	          0.35458681	         -1.90413434	          5.67323189	        -13.47824339	         16.57605225	        -10.67245050	        -13.61118021	          7.65859149	         36.45651276	         16.34116244	         86.51662706	         86.51662706	          0.21675292	          0.07875644	          0.05000005	          0.25368176	          0.17283163	          0.08201971	          0.05000086	          0.05000010	          0.05000007	          0.06237048	          0.08019305	          0.17296130	          0.20235367	          0.06664678	          0.05000135	          0.05000023	          0.26435251	          0.10806712	          0.05000193	          0.05000074	          0.05000043	          0.05000033	          0.29040135	          0.49298210	          0.05000013	          0.05000043	          0.05000030	          0.21515816	          0.10545661	          0.06007896	          0.12799966	          0.24531411	          0.31547836	          0.20254004	          0.17579626	          0.18352656	          0.23729233	          0.05000015	          0.10002366	          0.15588506	          0.05000012	          0.08179131	          0.05000023	          0.05000009	          0.05296315	          0.05994870	          0.05896846	          0.05896851	          0.05000010	          0.05896863	          0.05896857	          0.05896783	          0.05000141	          0.05000023	          0.22726951	          0.05000005	          0.05000033	          0.09789960	          0.24996806	          0.11967748	          0.13722403	          0.14969426	          0.05000012	          0.08201192	          0.05000117	          0.05000035	          0.05000077	          0.17382393	          0.05896868	          0.05444804	          0.36750901	          0.15413502	          0.11272381	          0.06062982	          0.19657841	          0.19618673	          0.16578352	          0.05491436	          0.05000054	          0.05719140	          0.05000002	          0.05000063	          0.05000094	          0.65603685	          0.29908248	          0.15651030	          0.56534897	          0.65756677	          0.35392365	          0.05000003	          0.08798880	          0.09673223	
          1.09774251	         -2.89660084	         -2.00109477	          6.47948494	          1.37855517	          0.85547129	         -0.00183167	        -17.24650090	         -2.28103790	          8.18329216	         30.83053525	          3.26532602	         -2.74181459	        -13.93519944	        -19.47860985	         -2.51260024	          1.22519187	         14.81416915	         -1.64752272	         -5.97653038	         -0.60475053	         28.63603350	          2.53315621	         -0.67106190	          0.63824284	         -1.96748486	          5.35055611	        -13.50894236	         16.79715841	        -11.71707738	        -13.60865264	          7.52600569	         37.44590973	         16.23769253	         86.51662706	         86.51662706	          0.18378712	          0.06677844	          0.05829394	          0.21509950	          0.14654580	          0.06954542	          0.06707221	          0.05000047	          0.05896804	          0.05288461	          0.06799663	          0.23242301	          0.37117422	          0.27408409	          0.12084503	          0.13454566	          0.22414760	          0.09163156	          0.05000283	          0.05013658	          0.05896798	          0.05896943	          0.24623439	          0.43821634	          0.05896855	          0.05896849	          0.05000051	          0.18243490	          0.10977072	          0.13454434	          0.10853274	          0.20800442	          0.26749744	          0.17173584	          0.14905952	          0.15561418	          0.20120272	          0.16004760	          0.08481134	          0.14983899	          0.05000047	          0.20735873	          0.15736091	          0.07167675	          0.06078037	          0.05896853	          0.05000003	          0.05000010	          0.15822329	          0.05000014	          0.05000011	          0.05000010	          0.05000015	          0.05000178	          0.19270425	          0.05000048	          0.05000147	          0.08301018	          0.21195082	          0.33116995	          0.27340614	          0.17802241	          0.05000028	          0.06954256	          0.14239032	          0.13399168	          0.14244826	          0.15618103	          0.05000030	          0.05000051	          0.33840142	          0.13069276	          0.09557975	          0.05896818	          0.26655993	          0.27013734	          0.22846103	          0.05000000	          0.05000001	          0.05000000	          0.05000001	          0.05000073	          0.05000013	          0.57098141	          0.26032970	          0.13904378	          0.58138272	          0.58477324	          0.30009568	          0.05000000	          0.07460664	          0.08202028	
          1.10850469	         -2.87735268	         -2.13216451	          6.67786379	          1.39541036	          0.85411079	         -0.00164594	        -16.73406852	         -2.55059746	          7.96019763	         29.97493063	          3.65286016	         -2.39745018	        -16.46484894	        -20.01047654	         -3.55593411	          1.45551888	         15.66173806	         -2.29362437	         -6.10295322	         -0.88293159	         28.22409027	          2.59769280	         -0.43334323	          0.92909895	         -2.01923188	          4.97109313	        -13.54888449	         16.95595544	        -12.72271605	        -13.61852732	          7.47952527	         38.43131805	         16.10703401	         86.51662706	         86.51662706	          0.20376154	          0.05662217	          0.05000002	          0.21124844	          0.12425784	          0.05896837	          0.09439056	          0.05000033	          0.05000021	          0.05000021	          0.05896819	          0.19707400	          0.31472259	          0.23239884	          0.10246591	          0.11408275	          0.31046434	          0.07769562	          0.05000074	          0.05000062	          0.05000047	          0.05000095	          0.20878484	          0.41485474	          0.05000010	          0.05000030	          0.05000008	          0.15468849	          0.09307577	          0.11408159	          0.09202607	          0.17636915	          0.22681391	          0.14561663	          0.12638919	          0.13194701	          0.17060201	          0.21921272	          0.11249607	          0.14805348	          0.22915114	          0.25394926	          0.13869382	          0.10415628	          0.05153632	          0.05000007	          0.31513391	          0.35630627	          0.47413378	          0.39095134	          0.24504288	          0.33550078	          0.08622838	          0.11532851	          0.16339600	          0.06954519	          0.05000028	          0.07038525	          0.17971538	          0.28080259	          0.23182412	          0.16770653	          0.05000016	          0.05896772	          0.12073463	          0.27170548	          0.21516111	          0.15956929	          0.05000020	          0.05000013	          0.28693419	          0.11081588	          0.24335399	          0.05000002	          0.27637663	          0.29926137	          0.24770583	          0.05000007	          0.05000012	          0.05219665	          0.07926954	          0.05000024	          0.05000044	          0.63475195	          0.22073631	          0.11789670	          0.49296060	          0.58309636	          0.37897095	          0.05851583	          0.07837850	          0.06954587	
